<?xml version="1.0"?>
<svg xmlns="http://www.w3.org/2000/svg" viewBox="0 0 512 512" width="512" height="512"><g id="Filled_outline" data-name="Filled outline"><polygon points="392 216 352 328 328 384 184 384 160 328 120 216 120 168 392 168 392 216" style="fill:#253555"/><path d="M448,401.97V496H64V401.97a64,64,0,0,1,48.48-62.09L192,320a28.939,28.939,0,0,0,16-25.89V240h96v54.11A28.939,28.939,0,0,0,320,320l79.52,19.88A64,64,0,0,1,448,401.97Z" style="fill:#fdc8a2"/><path d="M304,240v50.67l-6.4,8.53A31.992,31.992,0,0,1,272,312H240a31.992,31.992,0,0,1-25.6-12.8l-6.4-8.53V240Z" style="fill:#fdbf92"/><path d="M399.522,339.88,320,320l-9.955,26.547A57.721,57.721,0,0,1,256,384h0a57.721,57.721,0,0,1-54.045-37.453L192,320l-79.522,19.88A64,64,0,0,0,64,401.97V496H448V401.97A64,64,0,0,0,399.522,339.88Z" style="fill:#283f61"/><path d="M272,288H240a32,32,0,0,1-25.6-12.8l-32-42.667a32,32,0,0,1-6.4-19.2V120c0-44.183,35.817-72,80-72h0c44.183,0,80,27.817,80,72v93.333a32,32,0,0,1-6.4,19.2l-32,42.667A32,32,0,0,1,272,288Z" style="fill:#fdc8a2"/><path d="M172,184h4V128h-4a28,28,0,0,0-28,28h0A28,28,0,0,0,172,184Z" style="fill:#fdbf92"/><path d="M340,128h-4v56h4a28,28,0,0,0,28-28h0A28,28,0,0,0,340,128Z" style="fill:#fdbf92"/><path d="M120,208v-2a38,38,0,0,1,38-38H354a38,38,0,0,1,38,38V158.135a64,64,0,0,0-13.676-39.54l-59.91-76.25A48,48,0,0,0,280.67,24H231.33a48,48,0,0,0-37.744,18.345l-59.91,76.25A64,64,0,0,0,120,158.135Z" style="fill:#34507b"/><path d="M448,401.97V496H64V401.97a64,64,0,0,1,48.48-62.09l2.66-.66.76-.19,14.84-3.71.59-.15-7.48-20.57q-1.02-2.805-1.77-5.69A64.02,64.02,0,0,1,120,292.72V216l40,112,24,56,72,72,72-72,24-56,40-112v76.72a63.8,63.8,0,0,1-2.8,18.72c-.32,1.06-.67,2.12-1.05,3.16l-7.48,20.57.2.05,15.31,3.83.3.07,3.04.76A64.008,64.008,0,0,1,448,401.97Z" style="fill:#34507b"/><path d="M397.578,347.641a56.131,56.131,0,0,1,26.485,15.224l-37.185,30.989,10.244,12.292,36.395-30.331A55.521,55.521,0,0,1,440,401.97h16a71.409,71.409,0,0,0-14.184-42.894,72.146,72.146,0,0,0-40.357-26.958l-10.24-2.558,4.446-12.229A71.792,71.792,0,0,0,400,292.725V158.135a72.314,72.314,0,0,0-15.385-44.483L324.7,37.4A55.67,55.67,0,0,0,280.67,16H231.33A55.673,55.673,0,0,0,187.3,37.4L157.709,75.058l12.582,9.884,29.585-37.655A39.77,39.77,0,0,1,231.33,32H248v96H184v16H360V128H264V32h16.67a39.767,39.767,0,0,1,31.453,15.287l59.91,76.25A56.244,56.244,0,0,1,384,158.135v13.02A45.811,45.811,0,0,0,354,160H158a45.811,45.811,0,0,0-30,11.155v-13.02a56.244,56.244,0,0,1,11.967-34.6l17.753-22.6-12.582-9.884-17.752,22.594A72.309,72.309,0,0,0,112,158.135v134.59a71.792,71.792,0,0,0,4.335,24.606l4.446,12.229-10.24,2.558A72.033,72.033,0,0,0,56,401.97V496H72V401.97a56.311,56.311,0,0,1,11.228-33.6l30.626,36.752,12.292-10.242L94.6,357.025a55.966,55.966,0,0,1,19.819-9.383l11.859-2.964,18.2,50.056,15.038-5.468-28.147-77.4A55.834,55.834,0,0,1,128,292.725V262.186s49.623,126.752,50.343,127.471L248,459.314V496h16V459.314l72.333-72.981c.72-.719,47.334-119.333,47.334-119.333L384,292.725a55.834,55.834,0,0,1-3.372,19.137l-28.147,77.4,15.038,5.468,18.2-50.056ZM384,214.614l-37.1,103.866-24.043-6.01A20.931,20.931,0,0,1,312,294.11V269.333l24-32.006a40.284,40.284,0,0,0,8-24V191.758a36.008,36.008,0,0,0,23.5-12.536C389.667,183,384,214.614,384,214.614Zm-62.747,164.82L256,444.687l-65.253-65.253-19.693-45.952,15.962-3.99,7.449,19.863a65.719,65.719,0,0,0,123.07,0l7.449-19.863,15.962,3.99ZM184,176h64v16h16V176h64v37.33a24.171,24.171,0,0,1-4.8,14.4l-32,42.672A24.1,24.1,0,0,1,272,280H240a24.1,24.1,0,0,1-19.2-9.6l-32-42.667a24.175,24.175,0,0,1-4.8-14.4Zm32,118.11v-6.137A40.169,40.169,0,0,0,240,296h32a40.173,40.173,0,0,0,24-8.026v6.136a36.861,36.861,0,0,0,14.24,29.134l-7.685,20.494a49.721,49.721,0,0,1-93.11,0l-7.681-20.484A36.7,36.7,0,0,0,216,294.11ZM144.509,179.218c.649.769,1.322,1.523,2.039,2.244A35.763,35.763,0,0,0,168,191.773V213.33a40.289,40.289,0,0,0,8,24l24,32V294.11a20.817,20.817,0,0,1-10.859,18.359L165.1,318.48,128,214.614S123,185.667,144.509,179.218Z"/><rect x="440" y="424" width="16" height="72"/><path d="M290.53,217.418l-5.052-15.182c-.226.075-22.782,7.438-44.743,5.41l-1.47,15.932c3.179.294,6.349.423,9.467.423A146.9,146.9,0,0,0,290.53,217.418Z"/><rect x="152" y="128" width="16" height="16"/><path d="M120,452.754c-11.581-16.355-16.1-38.048-16.157-38.331l-15.688,3.146c.337,1.684,8.176,39.675,31.845,58.487V493h16V416H120Z"/><path d="M401.615,434.923A93.794,93.794,0,0,1,392,452.705V416H376v77h16V476.056c23.669-18.812,31.508-56.8,31.845-58.487l-15.69-3.138A122.2,122.2,0,0,1,401.615,434.923Z"/><path d="M200,440a15.986,15.986,0,0,0-8,29.835V496h16V469.835A15.986,15.986,0,0,0,200,440Z"/><path d="M312,440a15.986,15.986,0,0,0-8,29.835V496h16V469.835A15.986,15.986,0,0,0,312,440Z"/></g></svg>
