<svg id="fill" height="512" viewBox="0 0 64 64" width="512" xmlns="http://www.w3.org/2000/svg"><circle cx="35" cy="21" fill="#2298d1" r="19"/><path d="m35 33-13-19 5-5h16l5 5z" fill="#f8cc5c"/><path d="m43 9h-3l5 5-11.5 16.808 1.5 2.192 13-19z" fill="#d8aa44"/><path d="m33.051 26.316 1.9-.632-3.564-10.684h11.613v-2h-2.586l-4-4h-2.828l-4 4h-6.586l-1 1 .684 1h6.595zm1.949-15.902 2.586 2.586h-5.172z" fill="#fff"/><g fill="#2298d1"><path d="m4 14h2v2h-2z"/><path d="m2 16h2v2h-2z"/><path d="m6 16h2v2h-2z"/><path d="m4 18h2v2h-2z"/><path d="m14 2h2v2h-2z"/><path d="m12 4h2v2h-2z"/><path d="m16 4h2v2h-2z"/><path d="m14 6h2v2h-2z"/><path d="m55 2h2v2h-2z"/><path d="m53 4h2v2h-2z"/><path d="m57 4h2v2h-2z"/><path d="m55 6h2v2h-2z"/></g><path d="m14 21v4l-5.795 10.763a1.517 1.517 0 0 0 1.336 2.237h4.459v11.722a2.278 2.278 0 0 0 2.278 2.278h10.722v9h17v-14l7.3-9.119a21.468 21.468 0 0 0 4.7-13.412 21.553 21.553 0 0 0 -.3-3.469z" fill="#f8f8fe"/><path d="m55.7 21h-3.744c0 .157.023.311.023.469a21.468 21.468 0 0 1 -4.7 13.412l-7.3 9.119v1.021a12.979 12.979 0 0 1 -12.979 12.979v3h17v-14l7.3-9.119a21.468 21.468 0 0 0 4.7-13.412 21.553 21.553 0 0 0 -.3-3.469z" fill="#e3e3ff"/><path d="m55.7 20h-.746a19.973 19.973 0 0 0 -39.9 0h-1.054a1 1 0 0 0 -1 1v3.748l-5.676 10.54a2.518 2.518 0 0 0 2.217 3.712h3.459v10.722a3.282 3.282 0 0 0 3.278 3.278h9.722v8a1 1 0 0 0 1 1h17a1 1 0 0 0 1-1v-13.649l7.076-8.845a22.15 22.15 0 0 0 4.606-17.666 1 1 0 0 0 -.982-.84zm-20.7-17a18.006 18.006 0 0 1 17.949 17h-7.843l3.719-5.436a1 1 0 0 0 -.118-1.271l-5-5a1 1 0 0 0 -.707-.293h-16a1 1 0 0 0 -.707.293l-5 5a1 1 0 0 0 -.118 1.271l3.719 5.436h-7.843a18.006 18.006 0 0 1 17.949-17zm-5.414 10h-5.172l3-3h5.172zm1.36 7h-3.629l-3.417-5h5.383zm4.054-9.586 2.586 2.586h-5.172zm8 4.586v-2h-2.586l-3-3h5.172l4.12 4.12-4.023 5.88h-9.629l-1.667-5zm7.515 22.256-7.3 9.119a1 1 0 0 0 -.215.625v13h-15v-8a1 1 0 0 0 -1-1h-10.722a1.279 1.279 0 0 1 -1.278-1.278v-11.722a1 1 0 0 0 -1-1h-4.459a.519.519 0 0 1 -.456-.764l5.8-10.762a1 1 0 0 0 .115-.474v-3h39.831a19.3 19.3 0 0 1 .169 2.469 20.543 20.543 0 0 1 -4.485 12.787z"/><path d="m4 14h2v2h-2z"/><path d="m2 16h2v2h-2z"/><path d="m6 16h2v2h-2z"/><path d="m4 18h2v2h-2z"/><path d="m14 2h2v2h-2z"/><path d="m12 4h2v2h-2z"/><path d="m16 4h2v2h-2z"/><path d="m14 6h2v2h-2z"/><path d="m55 2h2v2h-2z"/><path d="m53 4h2v2h-2z"/><path d="m57 4h2v2h-2z"/><path d="m55 6h2v2h-2z"/></svg>