<svg id="Layer_35" enable-background="new 0 0 64 64" height="512" viewBox="0 0 64 64" width="512" xmlns="http://www.w3.org/2000/svg" xmlns:xlink="http://www.w3.org/1999/xlink"><linearGradient id="SVGID_1_" gradientUnits="userSpaceOnUse" x1="32" x2="32" y1="63" y2="1"><stop offset="0" stop-color="#9f2fff"/><stop offset="1" stop-color="#0bb1d3"/></linearGradient><path d="m51 25c6.617 0 12-5.383 12-12s-5.383-12-12-12-12 5.383-12 12c0 2.949 1.074 5.649 2.845 7.741l-16.824 16.824-1.974-1.974-2.302 1.425c-1.056-.586-2.172-1.049-3.332-1.382l-.621-2.634h-2.792v-8.051c6.149-.511 11-5.67 11-11.949 0-6.617-5.383-12-12-12s-12 5.383-12 12c0 6.279 4.851 11.438 11 11.949v8.051h-2.792l-.62 2.634c-1.174.337-2.304.807-3.373 1.404l-1.967-1.038h-2.248v27h27v-2.248l-1.039-1.968c.597-1.068 1.067-2.198 1.404-3.373l2.635-.619v-2.792h8.051c.511 6.149 5.67 11 11.949 11 6.617 0 12-5.383 12-12s-5.383-12-12-12c-6.279 0-11.438 4.851-11.949 11h-8.051v-2.792l-2.635-.62c-.333-1.16-.795-2.276-1.381-3.332l1.425-2.302-1.974-1.974 16.825-16.825c2.091 1.771 4.791 2.845 7.74 2.845zm-41-15c0-1.654 1.346-3 3-3s3 1.346 3 3-1.346 3-3 3-3-1.346-3-3zm3 13c-2.252 0-4.326-.757-5.999-2.018.01-3.3 2.697-5.982 5.999-5.982s5.989 2.682 5.999 5.982c-1.673 1.261-3.747 2.018-5.999 2.018zm-10-10c0-5.514 4.486-10 10-10s10 4.486 10 10c0 2.361-.827 4.53-2.201 6.243-.555-2.463-2.247-4.495-4.495-5.52 1.032-.917 1.696-2.238 1.696-3.723 0-2.757-2.243-5-5-5s-5 2.243-5 5c0 1.485.664 2.806 1.695 3.723-2.248 1.025-3.94 3.057-4.495 5.52-1.373-1.713-2.2-3.882-2.2-6.243zm42.001 45.982c.01-3.3 2.697-5.982 5.999-5.982s5.989 2.682 5.999 5.982c-1.673 1.261-3.747 2.018-5.999 2.018s-4.326-.757-5.999-2.018zm2.999-10.982c0-1.654 1.346-3 3-3s3 1.346 3 3-1.346 3-3 3-3-1.346-3-3zm3-7c5.514 0 10 4.486 10 10 0 2.361-.827 4.53-2.201 6.243-.555-2.463-2.247-4.495-4.495-5.52 1.032-.917 1.696-2.238 1.696-3.723 0-2.757-2.243-5-5-5s-5 2.243-5 5c0 1.485.664 2.806 1.695 3.723-2.248 1.025-3.94 3.057-4.495 5.52-1.373-1.713-2.2-3.882-2.2-6.243 0-5.514 4.486-10 10-10zm-48 20v-10c0-5.514 4.486-10 10-10s10 4.486 10 10-4.486 10-10 10zm23.728-12.743 2.272.535v4.416l-2.272.535-.146.595c-.337 1.376-.882 2.689-1.619 3.904l-.294.484 1.2 2.273h-6.25c3.239-2.15 5.381-5.828 5.381-9.999 0-6.617-5.383-12-12-12-4.171 0-7.849 2.142-10 5.381v-6.25l2.273 1.2.484-.294c1.214-.737 2.528-1.281 3.904-1.619l.595-.146.536-2.272h4.416l.535 2.272.595.146c1.376.337 2.689.882 3.904 1.619l.524.318 1.986-1.229 3.123 3.123-1.229 1.986.318.524c.736 1.213 1.281 2.527 1.619 3.904zm18.273-27.275c.01-3.3 2.697-5.982 5.999-5.982s5.989 2.682 5.999 5.982c-1.673 1.261-3.747 2.018-5.999 2.018s-4.326-.757-5.999-2.018zm2.999-10.982c0-1.654 1.346-3 3-3s3 1.346 3 3-1.346 3-3 3-3-1.346-3-3zm3-7c5.514 0 10 4.486 10 10 0 2.361-.827 4.53-2.201 6.243-.555-2.463-2.247-4.495-4.495-5.52 1.032-.917 1.696-2.238 1.696-3.723 0-2.757-2.243-5-5-5s-5 2.243-5 5c0 1.485.664 2.806 1.695 3.723-2.248 1.025-3.94 3.057-4.495 5.52-1.373-1.713-2.2-3.882-2.2-6.243 0-5.514 4.486-10 10-10zm-43 53h2v2h-2zm4 0h2v2h-2zm4 0h2v2h-2zm-8-4h10v2h-10zm0-4h10v2h-10zm0-4h10v2h-10z" fill="url(#SVGID_1_)"/></svg>