<?xml version="1.0"?>
<svg xmlns="http://www.w3.org/2000/svg" xmlns:xlink="http://www.w3.org/1999/xlink" width="512" height="512" viewBox="0 0 512 512"><defs><linearGradient id="a" data-name="New Gradient Swatch 1" x1="31.019" y1="529.943" x2="564.316" y2="-3.354" gradientUnits="userSpaceOnUse"><stop offset="0" stop-color="#003f8a"/><stop offset="0.518" stop-color="#00d7df"/><stop offset="1" stop-color="#006df0"/></linearGradient><linearGradient id="b" x1="11.363" y1="510.287" x2="544.66" y2="-23.01" xlink:href="#a"/><linearGradient id="c" x1="154.538" y1="653.462" x2="687.835" y2="120.165" xlink:href="#a"/><linearGradient id="d" x1="178.538" y1="677.462" x2="711.835" y2="144.165" xlink:href="#a"/></defs><g><path d="M505,120a96.006,96.006,0,0,0-191.24-12.14L290.11,64.5a31.884,31.884,0,0,0-42.4-13.3L12.42,168.84l.01.01A7.98,7.98,0,0,0,8,176V480a8,8,0,0,0,8,8H440a32.042,32.042,0,0,0,32-32V200a32.363,32.363,0,0,0-.75-6.91A95.17,95.17,0,0,0,505,120ZM321.32,168h-9.93a71.017,71.017,0,0,0-126.78,0h-9.93a80,80,0,0,1,146.64,0Zm-28.56,0H203.24a55.053,55.053,0,0,1,89.52,0ZM254.87,65.51a15.945,15.945,0,0,1,21.2,6.65l26.81,49.17A95.865,95.865,0,0,0,157.49,168H49.89ZM456,456a16.021,16.021,0,0,1-16,16H24V408H456Zm0-64H24V360H456Zm0-48H24V184H440a16.007,16.007,0,0,1,14.64,9.56A15.7,15.7,0,0,1,456,200ZM354,120a55,55,0,1,1,81.87,48H382.13A54.842,54.842,0,0,1,354,120Zm109.62,58.45a32.04,32.04,0,0,0-7-5.77A70.99,70.99,0,1,0,356.65,168H345.01A80,80,0,1,1,489,120,79.241,79.241,0,0,1,463.62,178.45Z" fill="url(#a)"/><path d="M431.85,114.07A15.758,15.758,0,0,0,432,112v-8a15.991,15.991,0,0,0-8-13.83V88a8,8,0,0,0-16,0h-8V80a8,8,0,0,0-16,0v8a8,8,0,0,0,0,16v32a8,8,0,0,0,0,16v8a8,8,0,0,0,16,0v-8h8a8,8,0,0,0,16,0,16.021,16.021,0,0,0,16-16v-8A16,16,0,0,0,431.85,114.07ZM400,104h16l.01,8H400Zm24,32H400v-8h24l.01,8Z" fill="url(#b)"/><path d="M432,416H336a8,8,0,0,0,0,16h96a8,8,0,0,0,0-16Z" fill="url(#c)"/><path d="M432,440H384a8,8,0,0,0,0,16h48a8,8,0,0,0,0-16Z" fill="url(#d)"/></g></svg>
